<svg style="vertical-align:-.023ex" xmlns="http://www.w3.org/2000/svg" width="1.061ex" height="1.618ex" viewBox="0 -705 469 715" xmlns:xlink="http://www.w3.org/1999/xlink"><defs><path id="prefix__a" d="M35 200q0 102 39 215t106 195 139 94h8q7 0 12 1 54-4 84-49 39-60 39-161 0-115-45-234T302 66 168-10h-7q-36 0-62 20T60 63t-19 67-6 70zm348 366q0 102-53 102-36 0-70-45t-56-102-34-100-13-50q49-1 97-1l97 1q1 1 8 33t16 80 8 82zM113 132q0-106 53-106 15 0 32 10t41 38 48 87 48 146l5 17H145q0-3-9-38t-16-78-7-76z"/></defs><g data-mml-node="math" stroke="currentColor" fill="currentColor" stroke-width="0"><use xlink:href="#prefix__a" data-mml-node="mi" transform="scale(1 -1)"/></g></svg>